<?xml version="1.0" encoding="utf-8"?>
<!-- Generator: Adobe Illustrator 28.0.0, SVG Export Plug-In . SVG Version: 6.00 Build 0)  -->
<svg version="1.1" id="Layer_1" xmlns="http://www.w3.org/2000/svg" xmlns:xlink="http://www.w3.org/1999/xlink" x="0px" y="0px"
	 viewBox="0 0 120 120" style="enable-background:new 0 0 120 120;" xml:space="preserve">
<style type="text/css">
	.st0{fill:#1D5902;}
</style>
<path class="st0" d="M118,60c0,2.5-1,4.7-2.6,6.4c-1.6,1.6-3.9,2.6-6.4,2.6H69v40c0,5-4,9-9,9s-9-4-9-9V69H11c-5,0-9-4-9-9
	c0-2.5,1-4.7,2.6-6.4C6.3,52,8.5,51,11,51h40V11c0-5,4-9,9-9c2.5,0,4.7,1,6.4,2.6C68,6.3,69,8.5,69,11v40h40C114,51,118,55,118,60z"
	/>
</svg>
