<?xml version="1.0" encoding="utf-8"?>
<!-- Generator: Adobe Illustrator 28.0.0, SVG Export Plug-In . SVG Version: 6.00 Build 0)  -->
<svg version="1.1" id="Layer_1" xmlns="http://www.w3.org/2000/svg" xmlns:xlink="http://www.w3.org/1999/xlink" x="0px" y="0px"
	 viewBox="0 0 16 16" style="enable-background:new 0 0 16 16;" xml:space="preserve">
<style type="text/css">
	.st0{fill:#FFFFFF;}
</style>
<path class="st0" d="M8,9.4l-3.9,3.9c-0.2,0.2-0.6,0.2-0.8,0l-0.6-0.6c-0.2-0.2-0.2-0.6,0-0.8L6.6,8L2.7,4.1c-0.2-0.2-0.2-0.6,0-0.8
	l0.6-0.6c0.2-0.2,0.6-0.2,0.8,0L8,6.6l3.9-3.9c0.2-0.2,0.6-0.2,0.8,0l0.6,0.6c0.2,0.2,0.2,0.6,0,0.8L9.4,8l3.9,3.9
	c0.2,0.2,0.2,0.6,0,0.8l-0.6,0.6c-0.2,0.2-0.6,0.2-0.8,0L8,9.4z"/>
</svg>
