<?xml version="1.0" encoding="utf-8"?>
<!-- Generator: Adobe Illustrator 28.0.0, SVG Export Plug-In . SVG Version: 6.00 Build 0)  -->
<svg version="1.1" id="Layer_1" xmlns="http://www.w3.org/2000/svg" xmlns:xlink="http://www.w3.org/1999/xlink" x="0px" y="0px"
	 viewBox="0 0 16 16" style="enable-background:new 0 0 16 16;" xml:space="preserve">
<style type="text/css">
	.st0{fill:none;}
	.st1{fill:#FFFFFF;}
</style>
<g>
	<g>
		<line class="st0" x1="12.1" y1="12.1" x2="8.4" y2="8.4"/>
		<line class="st0" x1="7.7" y1="7.7" x2="3.9" y2="3.9"/>
		<path class="st1" d="M12.5,11.8c0.2,0.2,0.2,0.5,0,0.7c-0.1,0.1-0.2,0.1-0.4,0.1c-0.1,0-0.2,0-0.3-0.1L8,8.7l-3.8,3.8
			c-0.1,0.1-0.2,0.1-0.3,0.1c-0.1,0-0.3,0-0.4-0.1c-0.2-0.2-0.2-0.5,0-0.7L7.3,8L3.5,4.2C3.3,4,3.3,3.7,3.5,3.5
			c0.2-0.2,0.5-0.2,0.7,0L8,7.3l3.8-3.8c0.2-0.2,0.5-0.2,0.7,0c0.2,0.2,0.2,0.5,0,0.7L8.7,8L12.5,11.8z"/>
	</g>
	<g>
		<line class="st0" x1="7.6" y1="8.4" x2="3.9" y2="12.1"/>
		<line class="st0" x1="12.1" y1="3.9" x2="8.4" y2="7.7"/>
	</g>
</g>
</svg>
