<?xml version="1.0" encoding="utf-8"?>
<!-- Generator: Adobe Illustrator 28.0.0, SVG Export Plug-In . SVG Version: 6.00 Build 0)  -->
<svg version="1.1" id="Icons" xmlns="http://www.w3.org/2000/svg" xmlns:xlink="http://www.w3.org/1999/xlink" x="0px" y="0px"
	 viewBox="0 0 120 120" style="enable-background:new 0 0 120 120;" xml:space="preserve">
<style type="text/css">
	.st0{fill:#1D5902;}
</style>
<g>
	<path class="st0" d="M118.9,44.9c-0.3-1.8-1.2-3.4-2.5-4.4L64,2.4c-2.6-1.9-5.4-1.9-8,0l-52.5,38c-2.7,2-3.3,6-1.4,9.2
		C3,51.1,4.4,52,6.1,52.4c1.5,0.3,3,0.1,4.4-0.5v51c0,9.1,7.1,16.2,16.2,16.2h66.8c9.1,0,16.2-7.1,16.2-16.2V51.8
		c2.7,1.2,6.4,0.4,8.2-2C118.8,48.5,119.2,46.7,118.9,44.9z M52.4,105.7V71.5h15.3v34.2H52.4z M96.2,102.8c0,1.8-1,2.9-2.9,2.9H81
		V69.6c0-6.3-5.1-11.4-11.4-11.4H50.5c-6.3,0-11.4,5.1-11.4,11.4v36.1H26.6c-1.8,0-2.9-1-2.9-2.9V42.5L60,16.3l36.2,26.2V102.8z"/>
</g>
</svg>
