<?xml version="1.0" encoding="utf-8"?>
<!-- Generator: Adobe Illustrator 28.0.0, SVG Export Plug-In . SVG Version: 6.00 Build 0)  -->
<svg version="1.1" id="Layer_1" xmlns="http://www.w3.org/2000/svg" xmlns:xlink="http://www.w3.org/1999/xlink" x="0px" y="0px"
	 viewBox="0 0 120 120" style="enable-background:new 0 0 120 120;" xml:space="preserve">
<style type="text/css">
	.st0{fill:#1D5902;}
</style>
<path class="st0" d="M52.9,88.2c-1.5,0-3-0.4-4.5-1.2c-8.5-4.7-15.7-15.6-13.2-25.8c0.8-3,4.6-12.9,20.1-12.9
	c10.2,0,21.7-0.4,30.3-2.8C96,42.4,96,38.1,96,35.7C96.1,23.4,76.4,19,59.6,19C36,19,29.9,30.7,23.7,40.4c-2.6,4.3-5.5,8.4-10.4,7.6
	c-5-0.8-8.4-5.5-7.6-10.4c2.3-15,18.5-37,53.8-37c15.2,0,28.2,2.7,37.6,8c11.1,6.2,17.2,15.8,17.2,27.1c0,7.6-3,21.3-23.5,27.3
	c-10.8,3.2-24,3.7-35.5,3.7c-0.9,0-1.6,0.2-1.6,0.9c-0.2,1.3,1.6,2.1,3.6,3.7c3.9,3.1,6,8,3.6,12.4C59.2,86.6,56.1,88.2,52.9,88.2z"
	/>
<circle class="st0" cx="60" cy="108.6" r="11"/>
</svg>
