<?xml version="1.0" encoding="utf-8"?>
<!-- Generator: Adobe Illustrator 28.0.0, SVG Export Plug-In . SVG Version: 6.00 Build 0)  -->
<svg version="1.1" id="Layer_1" xmlns="http://www.w3.org/2000/svg" xmlns:xlink="http://www.w3.org/1999/xlink" x="0px" y="0px"
	 viewBox="0 0 120 120" style="enable-background:new 0 0 120 120;" xml:space="preserve">
<style type="text/css">
	.st0{fill:#1D5902;}
</style>
<g>
	<path class="st0" d="M76.8,17.4c0.7-0.8,1.2-1.8,1.2-3V5.2c0-2.4-2-4.4-4.4-4.4H46.4c-2.4,0-4.4,2-4.4,4.4v9.2c0,1.2,0.4,2.2,1.2,3
		c-20.6,7-35.4,26.5-35.4,49.5c0,28.8,23.4,52.2,52.2,52.2s52.2-23.4,52.2-52.2C112.2,43.9,97.4,24.4,76.8,17.4z M60,101.6
		c-19.2,0-34.8-15.6-34.8-34.8S40.8,32,60,32s34.8,15.6,34.8,34.8S79.2,101.6,60,101.6z"/>
	<g>
		<path class="st0" d="M80.7,46.2C79.5,49,67.3,82.6,55.9,72.5c-9.2-11.4,19.3-27.1,21.8-28.6C80,42.5,81.7,43.6,80.7,46.2z"/>
	</g>
</g>
</svg>
